<svg fill="#000000" xmlns="http://www.w3.org/2000/svg"  viewBox="0 0 16 16" width="16px" height="16px" fill-rule="evenodd" clip-rule="evenodd"><path fill-rule="evenodd" d="M12.11,10.14c-0.31-0.44-0.65-0.8-0.65-1.61V5.84c0-1.14,0.08-2.19-0.76-2.98	C10.04,2.22,8.94,2,8.1,2C6.45,2,4.61,2.62,4.23,4.65C4.19,4.86,4.34,4.98,4.49,5.01l1.67,0.18c0.16-0.01,0.27-0.16,0.3-0.32	c0.15-0.7,0.73-1.04,1.39-1.04c0.36,0,0.76,0.14,0.97,0.45c0.25,0.36,0.21,0.85,0.21,1.26v0.22c-1,0.12-2.31,0.19-3.25,0.6	C4.7,6.83,3.94,7.78,3.94,9.19c0,1.8,1.13,2.7,2.59,2.7c1.23,0,1.9-0.29,2.85-1.26c0.31,0.45,0.42,0.67,0.99,1.15	c0.13,0.07,0.29,0.06,0.41-0.04v0.01c0.35-0.31,0.98-0.86,1.33-1.15C12.25,10.48,12.23,10.29,12.11,10.14z M9.03,7.52	c0,0.68,0.02,1.24-0.32,1.84C8.44,9.85,8,10.14,7.51,10.14c-0.66,0-1.05-0.5-1.05-1.25c0-1.47,1.32-1.74,2.58-1.74L9.03,7.52z" clip-rule="evenodd"/><path fill-rule="evenodd" d="M13.056,13.45C11.686,14.462,9.698,15,7.987,15	c-2.398,0-4.557-0.887-6.192-2.362c-0.128-0.116-0.014-0.274,0.14-0.184c1.763,1.026,3.944,1.644,6.196,1.644	c1.519,0,3.189-0.315,4.726-0.967C13.089,13.032,13.283,13.283,13.056,13.45z" clip-rule="evenodd"/><path fill-rule="evenodd" d="M13.627,12.8c-0.175-0.224-1.159-0.106-1.601-0.054	c-0.134,0.016-0.155-0.101-0.034-0.186c0.785-0.551,2.07-0.392,2.22-0.208c0.151,0.186-0.04,1.475-0.774,2.09	c-0.113,0.094-0.22,0.044-0.17-0.08C13.432,13.949,13.802,13.024,13.627,12.8z" clip-rule="evenodd"/></svg>