<svg version="1.2" xmlns="http://www.w3.org/2000/svg" viewBox="0 0 374 49" width="374" height="49">
	<title>New Project</title>
	<style>
		.s0 { fill: #1f2936;stroke: #eaeaea;stroke-width: 0 } 
		.s1 { fill: #e15208;stroke: #e15208;stroke-width: 0 } 
	</style>
	<g id="title">
		<g id="path94170">
			<path id="Layer" class="s0" d="m15.1 42.2c-2.4-1-4.5-2.4-6.3-4.3-1.8-1.8-3.2-3.9-4.2-6.3-1.1-2.4-1.6-5-1.6-7.7 0-2.7 0.5-5.2 1.6-7.7 1-2.4 2.4-4.5 4.2-6.3 1.8-1.8 3.9-3.2 6.3-4.2 2.5-1.1 5-1.6 7.7-1.6 3.2 0 6.4 0.8 9.1 2.2 2.8 1.4 5.1 3.5 6.9 5.9l-6.3 4.7c-1.1-1.5-2.5-2.7-4.2-3.6q-2.6-1.3-5.5-1.3c-3.2 0-6.2 1.2-8.4 3.5-2.3 2.2-3.5 5.2-3.5 8.4 0 3.2 1.2 6.2 3.5 8.5 2.2 2.2 5.2 3.5 8.4 3.5 3.2 0 6.2-1.3 8.5-3.5 1.3-1.3 2.2-2.9 2.8-4.5h-11.3v-7.9h19.8v3.9c0 2.7-0.5 5.3-1.5 7.7-1 2.4-2.4 4.5-4.3 6.3q-2.7 2.8-6.3 4.3c-2.4 1-5 1.5-7.7 1.5-2.7 0-5.2-0.5-7.7-1.5z"/>
		</g>
		<g id="path94172">
			<path id="Layer" class="s0" d="m79.5 43.4h-8.3l-9.9-27.1-9.9 27.1h-8.3l14.8-39h6.8z"/>
			<path id="Layer" class="s1" d="m61.3 43.4l-6.2-9.6h12.4z"/>
		</g>
		<g id="path94174">
			<path id="Layer" class="s0" d="m115.7 20.9l-8.9 15.4h-5l-8.8-15.3v22.4h-7.9v-39h7.1l12.1 21.2 12.1-21.2h7.2v39h-7.9z"/>
		</g>
		<g id="path94176">
			<path id="Layer" class="s0" d="m133.1 36.1h25.3v7.3h-25.3zm0-15.9h25.3v7.5h-25.3zm0-15.9h25.3v7.5h-25.3z"/>
		</g>
		<g id="path94178">
			<path id="Layer" class="s0" d="m197.4 43.4h-9.5l-9.3-13.4v-7.6h1.5q3.6 0 5.3-1.6 1.5-1.3 1.5-3.8 0-2.6-1.5-3.8c-1-0.9-2.6-1.4-4.7-1.4h-5.9v31.6h-7.8v-39h14.4q3.3 0 5.9 0.9 2.5 0.9 4.3 2.7c2.1 2.2 3.3 5.4 3.3 9.1 0 3.4-1 6.1-2.8 8.3q-1.9 2.2-5 3.3z"/>
		</g>
		<g id="path94180">
			<path id="Layer" class="s0" d="m215.1 37.7l-1.1-1.2 5.2-6.2 1.3 1.7c1.1 1.3 2.5 2.4 4 3.1 1.4 0.7 3 1.1 4.5 1.1 1.8 0 3.3-0.4 4.2-1.1q1.4-1 1.3-2.6c0-1.3-0.3-2-1.3-2.7-1.1-0.9-2.9-1.5-4.9-2.3q-0.3-0.1-0.6-0.2c-2.8-1.1-5.6-2.2-7.7-3.9-1.3-1-2.3-2.1-2.9-3.4q-1.1-2.2-1.1-4.8c0-3.1 1.3-6 3.7-8.1 2.4-2 5.5-3.1 8.9-3.1 4.4 0 8.6 1.6 12.3 4.5l1.3 1.1-4.8 6.3-1.4-1.2c-2.4-2-5.1-3.2-7.4-3.2-2.1 0-4.6 0.9-4.6 3.5 0 1.1 0.5 1.8 1.4 2.4 1.1 0.8 3.1 1.5 5.1 2.3q0.5 0.2 0.9 0.4c2.9 1.1 5.6 2.1 7.6 3.8 2.4 2 3.6 4.6 3.6 8.1q0 2.7-1.2 5.1-1.1 2.1-3.1 3.7c-2.5 1.9-5.8 2.9-9.4 2.9-5.2 0-10.2-2.1-13.8-6z"/>
		</g>
		<g id="path94182">
			<path id="Layer" class="s0" d="m257.2 11.8h-10.6v-7.4h29.2v7.4h-10.7v31.6h-7.9z"/>
		</g>
		<g id="path94184">
			<path id="Layer" class="s0" d="m311.4 43.4h-8.4l-9.9-27.1-9.8 27.1h-8.4l14.8-39h6.8z"/>
			<path id="Layer" class="s1" d="m293.2 43.4l-6.2-9.6h12.3z"/>
		</g>
		<g id="path94186">
			<path id="Layer" class="s0" d="m321.2 11.8h-10.6v-7.4h29.2v7.4h-10.7v31.6h-7.9z"/>
		</g>
		<g id="path94188">
			<path id="Layer" class="s0" d="m344.5 37.7l-1.1-1.2 5.2-6.2 1.3 1.7c1.1 1.3 2.4 2.4 4 3.1 1.4 0.7 3 1.1 4.5 1.1 1.7 0 3.3-0.4 4.2-1.1q1.3-1 1.3-2.6c0-1.3-0.3-2-1.3-2.7-1.1-0.9-2.9-1.5-5-2.3q-0.2-0.1-0.5-0.2c-2.8-1.1-5.6-2.2-7.8-3.9-1.2-1-2.2-2.1-2.8-3.4q-1.1-2.2-1.1-4.8c0-3.1 1.3-6 3.7-8.1 2.3-2 5.5-3.1 8.9-3.1 4.3 0 8.6 1.6 12.3 4.5l1.3 1.1-4.8 6.3-1.4-1.2c-2.4-2-5.2-3.2-7.4-3.2-2.1 0-4.6 0.9-4.6 3.5 0 1.1 0.5 1.8 1.3 2.4 1.2 0.8 3.1 1.5 5.2 2.3q0.4 0.2 0.9 0.4c2.9 1.1 5.6 2.1 7.6 3.8 2.4 2 3.6 4.6 3.6 8.1q0 2.7-1.2 5.1-1.1 2.1-3.1 3.7c-2.5 1.9-5.8 2.9-9.4 2.9-5.3 0-10.2-2.1-13.8-6z"/>
		</g>
	</g>
</svg>