<?xml version="1.0" encoding="utf-8"?>
<svg version="1.1" id="Layer_1" xmlns="http://www.w3.org/2000/svg" xmlns:xlink="http://www.w3.org/1999/xlink" x="0px" y="0px"
	 viewBox="0 0 512 512" style="enable-background:new 0 0 512 512;" xml:space="preserve">
<style type="text/css">
	.st0{fill:#231F20;}
</style>
<g>
	<path class="st0" d="M412.4,14.4c0-7.9-6.4-14.2-14.2-14.2h-71.1c-74.5-3.7-138,53.5-142.2,128v76.8h-71.1
		c-7.9,0-14.2,6.4-14.2,14.2V293c0,7.9,6.4,14.2,14.2,14.2h71.1v190.5c0,7.8,6.4,14.2,14.2,14.2h85.3c7.9,0,14.2-6.4,14.2-14.2
		V307.3h74.5c6.5,0.1,12.2-4.2,13.9-10.5l20.5-73.9c2-7.6-2.5-15.4-10-17.4l-3.6-0.5h-95.3v-76.8c1.5-14.6,13.8-25.7,28.4-25.6h71.1
		c7.9,0,14.2-6.4,14.2-14.2V14.4z"/>
</g>
</svg>
