<svg version="1.2" xmlns="http://www.w3.org/2000/svg" viewBox="0 0 512 512" width="512" height="512">
	<title>facebook_12-svg</title>
	<style>
		.s0 { fill: #231f20 } 
	</style>
	<g id="Layer">
		<path id="Layer" class="s0" d="m387.3 52.1v62.3c0 6.6-5.3 12-11.9 12h-59.9c-12.3-0.1-22.7 9.2-23.9 21.5v64.7h80.2l3.1 0.4c6.3 1.7 10.1 8.3 8.4 14.7l-17.3 62.2c-1.4 5.3-6.2 8.9-11.7 8.8h-62.7v160.4c0 6.5-5.3 11.9-12 11.9h-71.8c-6.6 0-12-5.4-12-11.9v-160.4h-59.8c-6.6 0-12-5.3-12-12v-62.1c0-6.6 5.3-12 12-12h59.8v-64.7c3.6-62.7 57-110.9 119.8-107.8h59.8c6.6 0 12 5.3 12 12z"/>
	</g>
</svg>