<?xml version="1.0" encoding="utf-8"?>
<!-- Generator: Adobe Illustrator 24.1.1, SVG Export Plug-In . SVG Version: 6.00 Build 0)  -->
<svg version="1.1" id="Layer_1" xmlns="http://www.w3.org/2000/svg" xmlns:xlink="http://www.w3.org/1999/xlink" x="0px" y="0px"
	 viewBox="0 0 512 512" style="enable-background:new 0 0 512 512;" xml:space="preserve">
<g>
	<path d="M190.5,293.4c27.5,36.8,69.8,56.3,112.5,56.3c29.2,0,58.8-9.1,84-28l0,0c5.4-4,10.5-8.4,15.2-13.2l70.2-70.2l0.3-0.3
		c26.3-27.2,39.4-62.5,39.4-97.5c0-36.7-14.4-73.5-42.9-101l0,0C442,13.4,406.7,0.2,371.6,0.2c-35.1,0-70.4,13.2-97.5,39.4l-0.2,0.2
		l-40.2,40c-9.2,9.1-9.2,23.9-0.1,33.1s23.9,9.2,33.1,0.1l40.2-40l-16.5-16.6l16.3,16.8c18.2-17.6,41.5-26.2,65-26.3
		c23.5,0,46.8,8.7,65,26.3l0,0c19.1,18.4,28.5,42.7,28.6,67.3c0,23.5-8.7,46.8-26.3,65l16.8,16.3l-16.5-16.5l-70.2,70.2
		c-3.2,3.2-6.5,6.1-10.1,8.8l0,0c-16.9,12.6-36.4,18.6-56,18.7c-28.6,0-56.6-12.9-75-37.5c-7.7-10.3-22.4-12.5-32.7-4.7
		C184.9,268.4,182.7,283.1,190.5,293.4L190.5,293.4z"/>
	<path d="M321.5,218.6c-27.5-36.8-69.8-56.3-112.5-56.3c-29.2,0-58.8,9.1-84,28l0,0c-5.4,4-10.5,8.4-15.2,13.2l-70.2,70.2l-0.3,0.3
		C13.1,301.1,0,336.4,0,371.4c0,36.7,14.4,73.5,42.9,101l0,0c27.1,26.2,62.4,39.4,97.5,39.4c35.1,0,70.4-13.2,97.5-39.4l0.3-0.3
		l40-40c9.1-9.1,9.1-23.9,0-33.1c-9.1-9.1-23.9-9.1-33.1,0l-40,40l16.5,16.5l-16.3-16.8c-18.2,17.6-41.5,26.2-65,26.3
		c-23.5,0-46.8-8.7-65-26.3l0,0c-19.1-18.4-28.5-42.7-28.6-67.3c0-23.5,8.7-46.8,26.3-65l-16.8-16.3l16.5,16.5l70.2-70.2
		c3.2-3.2,6.5-6.1,10.1-8.8l0,0c16.9-12.6,36.4-18.6,56-18.7c28.6,0,56.6,12.9,75,37.5c7.7,10.3,22.4,12.5,32.7,4.7
		S329.3,228.9,321.5,218.6L321.5,218.6z"/>
</g>
</svg>
