<svg version="1.2" xmlns="http://www.w3.org/2000/svg" viewBox="0 0 512 512" width="512" height="512">
	<title>link-icon-svg</title>
	<style>
		.s0 { fill: #000000 } 
	</style>
	<g id="Layer">
		<path id="Layer" class="s0" d="m205.1 260.3c8.5-6.5 20.7-4.7 27.1 3.9 15.3 20.4 38.5 31.1 62.3 31.1 16.2-0.1 32.4-5.1 46.4-15.5 3-2.3 5.8-4.7 8.4-7.3l58.3-58.3 13.7 13.7-14-13.5c14.6-15.1 21.9-34.5 21.9-54-0.1-20.4-7.9-40.5-23.8-55.8-15.1-14.6-34.4-21.8-53.9-21.8-19.5 0-38.9 7.2-54 21.8l-13.5-14 13.7 13.8-33.4 33.2c-7.6 7.6-19.9 7.6-27.4-0.1-7.6-7.6-7.6-19.9 0.1-27.4l33.3-33.2 0.2-0.2c22.5-21.7 51.8-32.7 80.9-32.7 29.1 0 58.4 11 81 32.6 23.6 22.8 35.6 53.4 35.6 83.8 0 29.1-10.9 58.4-32.7 81l-0.2 0.2-58.3 58.3c-3.9 3.9-8.1 7.6-12.6 10.9-20.9 15.7-45.5 23.3-69.7 23.3-35.5 0-70.6-16.2-93.4-46.8-6.5-8.5-4.6-20.7 4-27z"/>
		<path id="Layer" class="s0" d="m305.8 252.2c-8.5 6.5-20.7 4.7-27.1-3.9-15.3-20.4-38.5-31.1-62.2-31.1-16.3 0.1-32.5 5.1-46.5 15.5-3 2.3-5.7 4.7-8.4 7.3l-58.3 58.3-13.7-13.7 14 13.5c-14.6 15.1-21.8 34.5-21.8 54 0 20.4 7.8 40.5 23.7 55.8 15.1 14.6 34.4 21.8 53.9 21.8 19.5 0 38.9-7.2 54-21.8l13.5 14-13.7-13.7 33.2-33.2c7.6-7.6 19.9-7.6 27.5 0 7.5 7.6 7.5 19.9 0 27.4l-33.2 33.2-0.3 0.3c-22.5 21.7-51.7 32.7-80.9 32.7-29.1 0-58.4-11-80.9-32.7-23.6-22.8-35.6-53.4-35.6-83.8 0-29.1 10.9-58.4 32.6-80.9l0.3-0.2 58.2-58.3c3.9-4 8.2-7.6 12.6-10.9 21-15.7 45.5-23.3 69.8-23.3 35.4 0 70.5 16.2 93.3 46.8 6.5 8.5 4.6 20.5-4 26.9z"/>
	</g>
</svg>